<svg width="59" height="40" viewBox="0 0 59 40" fill="none" xmlns="http://www.w3.org/2000/svg">
<mask id="path-1-inside-1_110_2149" fill="white">
<path d="M0 0H59V40H0V0Z"/>
</mask>
<path d="M0 0H59V40H0V0Z" fill="#7758FF" fill-opacity="0.07"/>
<path d="M0.5 40V0H-0.5V40H0.5Z" fill="#BACFFF" mask="url(#path-1-inside-1_110_2149)"/>
<path fill-rule="evenodd" clip-rule="evenodd" d="M37.9583 10.3332H36.75V7.9165H34.3333V10.3332H24.6667V7.9165H22.25V10.3332H21.0417C19.7004 10.3332 18.625 11.4207 18.625 12.7498V29.6665C18.625 30.9957 19.7004 32.0832 21.0417 32.0832H37.9583C39.2875 32.0832 40.375 30.9957 40.375 29.6665V12.7498C40.375 11.4207 39.2875 10.3332 37.9583 10.3332ZM37.9583 29.6665H21.0417V16.3748H37.9583V29.6665ZM22.8542 21.2082C22.8542 19.5407 24.2075 18.1873 25.875 18.1873C27.5425 18.1873 28.8958 19.5407 28.8958 21.2082C28.8958 22.8757 27.5425 24.229 25.875 24.229C24.2075 24.229 22.8542 22.8757 22.8542 21.2082Z" fill="#7758FF" fill-opacity="0.85"/>
</svg>
